# MagicaVoxel @ ephtracy

# material
mtllib invader.mtl
usemtl palette

# normals
vn -1 0 0
vn 1 0 0
vn 0 0 1
vn 0 0 -1
vn 0 -1 0
vn 0 1 0

# texcoords
vt 0.849609 0.5
vt 0.958984 0.5
vt 0.982422 0.5

# verts
v -4.5 0 6.5
v -4.5 0 4.5
v -4.5 0 -3.5
v -4.5 0 -4.5
v -4.5 1 4.5
v -4.5 1 0.5
v -4.5 1 -0.5
v -4.5 1 -3.5
v -4.5 2 4.5
v -4.5 2 0.5
v -4.5 2 -0.5
v -4.5 2 -3.5
v -4.5 2 -4.5
v -4.5 3 6.5
v -4.5 3 4.5
v -3.5 0 4.5
v -3.5 0 -3.5
v -3.5 1 4.5
v -3.5 1 0.5
v -3.5 1 -0.5
v -3.5 1 -3.5
v -3.5 2 4.5
v -3.5 2 0.5
v -3.5 2 -0.5
v -3.5 2 -2.5
v -3.5 2 -3.5
v -3.5 2 -4.5
v -3.5 3 4.5
v -3.5 3 -2.5
v -3.5 3 -3.5
v -3.5 3 -4.5
v -0.5 0 3.5
v -0.5 0 2.5
v -0.5 2 3.5
v -0.5 2 2.5
v -0.5 3 3.5
v -0.5 3 2.5
v 1.5 0 -2.5
v 1.5 0 -3.5
v 1.5 0 -4.5
v 1.5 2 -3.5
v 1.5 2 -4.5
v 1.5 3 -2.5
v 1.5 3 -3.5
v 3.5 0 3.5
v 3.5 0 2.5
v 3.5 0 -0.5
v 3.5 0 -1.5
v 3.5 1 -1.5
v 3.5 1 -2.5
v 3.5 2 3.5
v 3.5 2 2.5
v 3.5 2 -1.5
v 3.5 2 -2.5
v 3.5 3 3.5
v 3.5 3 2.5
v 3.5 3 -0.5
v 3.5 3 -1.5
v 4.5 0 6.5
v 4.5 0 5.5
v 4.5 3 6.5
v 4.5 3 5.5
v -3.5 0 6.5
v -3.5 0 5.5
v -3.5 3 6.5
v -3.5 3 5.5
v -2.5 0 3.5
v -2.5 0 2.5
v -2.5 0 -0.5
v -2.5 0 -3.5
v -2.5 0 -4.5
v -2.5 2 3.5
v -2.5 2 2.5
v -2.5 2 -2.5
v -2.5 2 -3.5
v -2.5 3 3.5
v -2.5 3 2.5
v -2.5 3 -0.5
v -2.5 3 -2.5
v -2.5 3 -3.5
v -2.5 3 -4.5
v 1.5 0 3.5
v 1.5 0 2.5
v 1.5 2 3.5
v 1.5 2 2.5
v 1.5 3 3.5
v 1.5 3 2.5
v 2.5 0 -2.5
v 2.5 0 -3.5
v 2.5 0 -4.5
v 2.5 1 -2.5
v 2.5 1 -3.5
v 2.5 1 -4.5
v 2.5 2 -2.5
v 2.5 2 -3.5
v 2.5 3 -2.5
v 2.5 3 -3.5
v 3.5 0 0.5
v 3.5 0 -0.5
v 3.5 1 -2.5
v 3.5 1 -3.5
v 3.5 1 -4.5
v 3.5 2 -2.5
v 3.5 2 -3.5
v 3.5 2 -4.5
v 3.5 3 0.5
v 3.5 3 -0.5
v 4.5 0 5.5
v 4.5 0 0.5
v 4.5 0 -0.5
v 4.5 0 -1.5
v 4.5 1 5.5
v 4.5 1 0.5
v 4.5 1 -0.5
v 4.5 1 -1.5
v 4.5 2 4.5
v 4.5 2 0.5
v 4.5 2 -0.5
v 4.5 2 -1.5
v 4.5 3 4.5
v 4.5 3 0.5
v 4.5 3 -0.5
v 4.5 3 -1.5
v 5.5 0 6.5
v 5.5 0 5.5
v 5.5 1 5.5
v 5.5 1 0.5
v 5.5 1 -0.5
v 5.5 1 -2.5
v 5.5 2 4.5
v 5.5 2 0.5
v 5.5 2 -0.5
v 5.5 2 -2.5
v 5.5 3 6.5
v 5.5 3 4.5
v -4.5 0 6.5
v -4.5 3 6.5
v -3.5 0 6.5
v -3.5 3 6.5
v 4.5 0 6.5
v 4.5 3 6.5
v 5.5 0 6.5
v 5.5 3 6.5
v -3.5 0 5.5
v -3.5 3 5.5
v 4.5 0 5.5
v 4.5 3 5.5
v -2.5 0 2.5
v -2.5 2 2.5
v -2.5 3 2.5
v -0.5 0 2.5
v -0.5 2 2.5
v -0.5 3 2.5
v 1.5 0 2.5
v 1.5 2 2.5
v 1.5 3 2.5
v 3.5 0 2.5
v 3.5 2 2.5
v 3.5 3 2.5
v -4.5 1 -0.5
v -4.5 2 -0.5
v -3.5 1 -0.5
v -3.5 2 -0.5
v 3.5 0 -0.5
v 3.5 3 -0.5
v 4.5 0 -0.5
v 4.5 1 -0.5
v 4.5 2 -0.5
v 4.5 3 -0.5
v 5.5 1 -0.5
v 5.5 2 -0.5
v 1.5 0 -2.5
v 1.5 3 -2.5
v 2.5 0 -2.5
v 2.5 1 -2.5
v 2.5 2 -2.5
v 2.5 3 -2.5
v 3.5 1 -2.5
v 3.5 2 -2.5
v -4.5 0 -3.5
v -4.5 1 -3.5
v -3.5 0 -3.5
v -3.5 1 -3.5
v -3.5 2 -3.5
v -3.5 3 -3.5
v -2.5 2 -3.5
v -2.5 3 -3.5
v 4.5 0 5.5
v 4.5 1 5.5
v 5.5 0 5.5
v 5.5 1 5.5
v -4.5 0 4.5
v -4.5 1 4.5
v -4.5 2 4.5
v -4.5 3 4.5
v -3.5 0 4.5
v -3.5 1 4.5
v -3.5 2 4.5
v -3.5 3 4.5
v 4.5 2 4.5
v 4.5 3 4.5
v 5.5 2 4.5
v 5.5 3 4.5
v -2.5 0 3.5
v -2.5 2 3.5
v -2.5 3 3.5
v -0.5 0 3.5
v -0.5 2 3.5
v -0.5 3 3.5
v 1.5 0 3.5
v 1.5 2 3.5
v 1.5 3 3.5
v 3.5 0 3.5
v 3.5 2 3.5
v 3.5 3 3.5
v -4.5 1 0.5
v -4.5 2 0.5
v -3.5 1 0.5
v -3.5 2 0.5
v 3.5 0 0.5
v 3.5 3 0.5
v 4.5 0 0.5
v 4.5 1 0.5
v 4.5 2 0.5
v 4.5 3 0.5
v 5.5 1 0.5
v 5.5 2 0.5
v -2.5 0 -0.5
v -2.5 3 -0.5
v 3.5 0 -0.5
v 3.5 3 -0.5
v 3.5 0 -1.5
v 3.5 1 -1.5
v 3.5 2 -1.5
v 3.5 3 -1.5
v 4.5 0 -1.5
v 4.5 1 -1.5
v 4.5 2 -1.5
v 4.5 3 -1.5
v -3.5 2 -2.5
v -3.5 3 -2.5
v -2.5 2 -2.5
v -2.5 3 -2.5
v 3.5 1 -2.5
v 3.5 2 -2.5
v 5.5 1 -2.5
v 5.5 2 -2.5
v 1.5 2 -3.5
v 1.5 3 -3.5
v 2.5 2 -3.5
v 2.5 3 -3.5
v -4.5 0 -4.5
v -4.5 2 -4.5
v -3.5 2 -4.5
v -3.5 3 -4.5
v -2.5 0 -4.5
v -2.5 3 -4.5
v 1.5 0 -4.5
v 1.5 2 -4.5
v 2.5 0 -4.5
v 2.5 1 -4.5
v 3.5 1 -4.5
v 3.5 2 -4.5
v -4.5 0 6.5
v -3.5 0 6.5
v 4.5 0 6.5
v 5.5 0 6.5
v -3.5 0 5.5
v 4.5 0 5.5
v 5.5 0 5.5
v -4.5 0 4.5
v -3.5 0 4.5
v -2.5 0 3.5
v -0.5 0 3.5
v 1.5 0 3.5
v 3.5 0 3.5
v -2.5 0 2.5
v -0.5 0 2.5
v 1.5 0 2.5
v 3.5 0 2.5
v 3.5 0 0.5
v 4.5 0 0.5
v -2.5 0 -0.5
v 3.5 0 -0.5
v 4.5 0 -0.5
v 3.5 0 -1.5
v 4.5 0 -1.5
v 1.5 0 -2.5
v 2.5 0 -2.5
v -4.5 0 -3.5
v -3.5 0 -3.5
v -2.5 0 -3.5
v 1.5 0 -3.5
v 2.5 0 -3.5
v -4.5 0 -4.5
v -2.5 0 -4.5
v 1.5 0 -4.5
v 2.5 0 -4.5
v 4.5 1 5.5
v 5.5 1 5.5
v -4.5 1 4.5
v -3.5 1 4.5
v -4.5 1 0.5
v -3.5 1 0.5
v 4.5 1 0.5
v 5.5 1 0.5
v -4.5 1 -0.5
v -3.5 1 -0.5
v 4.5 1 -0.5
v 5.5 1 -0.5
v 3.5 1 -1.5
v 4.5 1 -1.5
v 2.5 1 -2.5
v 3.5 1 -2.5
v 5.5 1 -2.5
v -4.5 1 -3.5
v -3.5 1 -3.5
v 2.5 1 -3.5
v 3.5 1 -3.5
v 2.5 1 -4.5
v 3.5 1 -4.5
v -4.5 2 4.5
v -3.5 2 4.5
v 4.5 2 4.5
v 5.5 2 4.5
v -4.5 2 0.5
v -3.5 2 0.5
v 4.5 2 0.5
v 5.5 2 0.5
v -4.5 2 -0.5
v -3.5 2 -0.5
v 4.5 2 -0.5
v 5.5 2 -0.5
v 3.5 2 -1.5
v 4.5 2 -1.5
v -3.5 2 -2.5
v -2.5 2 -2.5
v 2.5 2 -2.5
v 3.5 2 -2.5
v 5.5 2 -2.5
v -4.5 2 -3.5
v -3.5 2 -3.5
v -2.5 2 -3.5
v 1.5 2 -3.5
v 2.5 2 -3.5
v 3.5 2 -3.5
v -4.5 2 -4.5
v -3.5 2 -4.5
v 1.5 2 -4.5
v 3.5 2 -4.5
v -4.5 3 6.5
v -3.5 3 6.5
v 4.5 3 6.5
v 5.5 3 6.5
v -3.5 3 5.5
v 4.5 3 5.5
v -4.5 3 4.5
v -3.5 3 4.5
v -2.5 3 4.5
v -0.5 3 4.5
v 1.5 3 4.5
v 3.5 3 4.5
v 4.5 3 4.5
v 5.5 3 4.5
v -2.5 3 3.5
v -0.5 3 3.5
v 1.5 3 3.5
v 3.5 3 3.5
v -2.5 3 2.5
v -0.5 3 2.5
v 1.5 3 2.5
v 3.5 3 2.5
v -2.5 3 1.5
v -0.5 3 1.5
v 1.5 3 1.5
v 3.5 3 1.5
v 3.5 3 0.5
v 4.5 3 0.5
v -2.5 3 -0.5
v 3.5 3 -0.5
v 4.5 3 -0.5
v 3.5 3 -1.5
v 4.5 3 -1.5
v -3.5 3 -2.5
v -2.5 3 -2.5
v 1.5 3 -2.5
v 2.5 3 -2.5
v -3.5 3 -3.5
v -2.5 3 -3.5
v 1.5 3 -3.5
v 2.5 3 -3.5
v -3.5 3 -4.5
v -2.5 3 -4.5

# faces
f 5/2/1 2/2/1 1/2/1
f 8/1/1 4/1/1 3/1/1
f 9/2/1 6/2/1 5/2/1
f 9/2/1 5/2/1 1/2/1
f 10/2/1 6/2/1 9/2/1
f 11/2/1 8/2/1 7/2/1
f 12/1/1 4/1/1 8/1/1
f 12/2/1 8/2/1 11/2/1
f 13/1/1 4/1/1 12/1/1
f 14/2/1 9/2/1 1/2/1
f 15/2/1 9/2/1 14/2/1
f 18/2/1 17/2/1 16/2/1
f 19/2/1 17/2/1 18/2/1
f 20/2/1 17/2/1 19/2/1
f 21/2/1 17/2/1 20/2/1
f 23/2/1 20/2/1 19/2/1
f 24/2/1 20/2/1 23/2/1
f 28/2/1 25/2/1 24/2/1
f 28/2/1 23/2/1 22/2/1
f 28/2/1 24/2/1 23/2/1
f 29/2/1 25/2/1 28/2/1
f 30/1/1 27/1/1 26/1/1
f 31/1/1 27/1/1 30/1/1
f 34/2/1 33/2/1 32/2/1
f 35/2/1 33/2/1 34/2/1
f 36/2/1 35/2/1 34/2/1
f 37/2/1 35/2/1 36/2/1
f 41/2/1 39/2/1 38/2/1
f 41/1/1 40/1/1 39/1/1
f 42/1/1 40/1/1 41/1/1
f 43/2/1 41/2/1 38/2/1
f 44/2/1 41/2/1 43/2/1
f 49/2/1 48/2/1 47/2/1
f 51/2/1 46/2/1 45/2/1
f 52/2/1 46/2/1 51/2/1
f 53/2/1 50/2/1 49/2/1
f 53/2/1 49/2/1 47/2/1
f 54/2/1 50/2/1 53/2/1
f 55/2/1 52/2/1 51/2/1
f 56/2/1 52/2/1 55/2/1
f 57/2/1 53/2/1 47/2/1
f 58/2/1 53/2/1 57/2/1
f 61/2/1 60/2/1 59/2/1
f 62/2/1 60/2/1 61/2/1
f 63/2/2 64/2/2 65/2/2
f 65/2/2 64/2/2 66/2/2
f 67/2/2 68/2/2 72/2/2
f 72/2/2 68/2/2 73/2/2
f 69/2/2 70/2/2 74/2/2
f 70/1/2 71/1/2 75/1/2
f 74/2/2 70/2/2 75/2/2
f 72/2/2 73/2/2 76/2/2
f 76/2/2 73/2/2 77/2/2
f 69/2/2 74/2/2 78/2/2
f 78/2/2 74/2/2 79/2/2
f 75/1/2 71/1/2 80/1/2
f 80/1/2 71/1/2 81/1/2
f 82/2/2 83/2/2 84/2/2
f 84/2/2 83/2/2 85/2/2
f 84/2/2 85/2/2 86/2/2
f 86/2/2 85/2/2 87/2/2
f 88/2/2 89/2/2 91/2/2
f 89/1/2 90/1/2 92/1/2
f 91/2/2 89/2/2 92/2/2
f 92/1/2 90/1/2 93/1/2
f 94/2/2 95/2/2 96/2/2
f 96/2/2 95/2/2 97/2/2
f 100/2/2 101/2/2 103/2/2
f 101/1/2 102/1/2 104/1/2
f 103/2/2 101/2/2 104/2/2
f 104/1/2 102/1/2 105/1/2
f 98/2/2 99/2/2 106/2/2
f 106/2/2 99/2/2 107/2/2
f 108/2/2 109/2/2 112/2/2
f 112/2/2 109/2/2 113/2/2
f 110/2/2 111/2/2 114/2/2
f 114/2/2 111/2/2 115/2/2
f 116/2/2 117/2/2 120/2/2
f 120/2/2 117/2/2 121/2/2
f 118/2/2 119/2/2 122/2/2
f 122/2/2 119/2/2 123/2/2
f 124/2/2 125/2/2 126/2/2
f 126/2/2 127/2/2 130/2/2
f 130/2/2 127/2/2 131/2/2
f 128/2/2 129/2/2 132/2/2
f 132/2/2 129/2/2 133/2/2
f 124/2/2 126/2/2 134/2/2
f 126/2/2 130/2/2 134/2/2
f 134/2/2 130/2/2 135/2/2
f 138/2/3 137/2/3 136/2/3
f 139/2/3 137/2/3 138/2/3
f 142/2/3 141/2/3 140/2/3
f 143/2/3 141/2/3 142/2/3
f 146/2/3 145/2/3 144/2/3
f 147/2/3 145/2/3 146/2/3
f 151/2/3 149/2/3 148/2/3
f 152/3/3 150/3/3 149/3/3
f 152/2/3 149/2/3 151/2/3
f 153/3/3 150/3/3 152/3/3
f 157/2/3 155/2/3 154/2/3
f 158/3/3 156/3/3 155/3/3
f 158/2/3 155/2/3 157/2/3
f 159/3/3 156/3/3 158/3/3
f 162/2/3 161/2/3 160/2/3
f 163/2/3 161/2/3 162/2/3
f 166/2/3 165/2/3 164/2/3
f 167/2/3 165/2/3 166/2/3
f 168/2/3 165/2/3 167/2/3
f 169/2/3 165/2/3 168/2/3
f 170/2/3 168/2/3 167/2/3
f 171/2/3 168/2/3 170/2/3
f 174/2/3 173/2/3 172/2/3
f 175/2/3 173/2/3 174/2/3
f 176/2/3 173/2/3 175/2/3
f 177/2/3 173/2/3 176/2/3
f 178/2/3 176/2/3 175/2/3
f 179/2/3 176/2/3 178/2/3
f 182/1/3 181/1/3 180/1/3
f 183/1/3 181/1/3 182/1/3
f 186/1/3 185/1/3 184/1/3
f 187/1/3 185/1/3 186/1/3
f 188/2/4 189/2/4 190/2/4
f 190/2/4 189/2/4 191/2/4
f 192/2/4 193/2/4 196/2/4
f 196/2/4 193/2/4 197/2/4
f 194/2/4 195/2/4 198/2/4
f 198/2/4 195/2/4 199/2/4
f 200/2/4 201/2/4 202/2/4
f 202/2/4 201/2/4 203/2/4
f 204/2/4 205/2/4 207/2/4
f 205/3/4 206/3/4 208/3/4
f 207/2/4 205/2/4 208/2/4
f 208/3/4 206/3/4 209/3/4
f 210/2/4 211/2/4 213/2/4
f 211/3/4 212/3/4 214/3/4
f 213/2/4 211/2/4 214/2/4
f 214/3/4 212/3/4 215/3/4
f 216/2/4 217/2/4 218/2/4
f 218/2/4 217/2/4 219/2/4
f 220/2/4 221/2/4 222/2/4
f 222/2/4 221/2/4 223/2/4
f 223/2/4 221/2/4 224/2/4
f 224/2/4 221/2/4 225/2/4
f 223/2/4 224/2/4 226/2/4
f 226/2/4 224/2/4 227/2/4
f 228/2/4 229/2/4 230/2/4
f 230/2/4 229/2/4 231/2/4
f 232/2/4 233/2/4 236/2/4
f 236/2/4 233/2/4 237/2/4
f 234/2/4 235/2/4 238/2/4
f 238/2/4 235/2/4 239/2/4
f 240/2/4 241/2/4 242/2/4
f 242/2/4 241/2/4 243/2/4
f 244/2/4 245/2/4 246/2/4
f 246/2/4 245/2/4 247/2/4
f 248/2/4 249/2/4 250/2/4
f 250/2/4 249/2/4 251/2/4
f 252/1/4 253/1/4 254/1/4
f 252/1/4 254/1/4 256/1/4
f 254/1/4 255/1/4 256/1/4
f 256/1/4 255/1/4 257/1/4
f 258/1/4 259/1/4 260/1/4
f 260/1/4 259/1/4 261/1/4
f 261/1/4 259/1/4 262/1/4
f 262/1/4 259/1/4 263/1/4
f 268/2/5 265/2/5 264/2/5
f 269/2/5 267/2/5 266/2/5
f 270/2/5 267/2/5 269/2/5
f 271/2/5 268/2/5 264/2/5
f 271/2/5 269/2/5 268/2/5
f 272/2/5 269/2/5 271/2/5
f 273/2/5 269/2/5 272/2/5
f 274/2/5 269/2/5 273/2/5
f 275/2/5 269/2/5 274/2/5
f 276/2/5 269/2/5 275/2/5
f 277/2/5 273/2/5 272/2/5
f 278/2/5 275/2/5 274/2/5
f 279/2/5 275/2/5 278/2/5
f 280/2/5 269/2/5 276/2/5
f 281/2/5 279/2/5 278/2/5
f 281/2/5 280/2/5 279/2/5
f 281/2/5 269/2/5 280/2/5
f 281/2/5 278/2/5 277/2/5
f 282/2/5 269/2/5 281/2/5
f 283/2/5 277/2/5 272/2/5
f 283/2/5 281/2/5 277/2/5
f 284/2/5 281/2/5 283/2/5
f 286/2/5 285/2/5 284/2/5
f 287/2/5 285/2/5 286/2/5
f 291/2/5 283/2/5 272/2/5
f 292/2/5 283/2/5 291/2/5
f 293/2/5 289/2/5 288/2/5
f 294/2/5 289/2/5 293/2/5
f 295/1/5 292/1/5 291/1/5
f 295/1/5 291/1/5 290/1/5
f 296/1/5 292/1/5 295/1/5
f 297/1/5 294/1/5 293/1/5
f 298/1/5 294/1/5 297/1/5
f 303/2/5 302/2/5 301/2/5
f 304/2/5 302/2/5 303/2/5
f 305/2/5 300/2/5 299/2/5
f 306/2/5 300/2/5 305/2/5
f 312/2/5 310/2/5 309/2/5
f 314/2/5 312/2/5 311/2/5
f 315/2/5 310/2/5 312/2/5
f 315/2/5 312/2/5 314/2/5
f 316/2/5 308/2/5 307/2/5
f 317/2/5 308/2/5 316/2/5
f 318/2/5 314/2/5 313/2/5
f 319/2/5 314/2/5 318/2/5
f 320/1/5 319/1/5 318/1/5
f 321/1/5 319/1/5 320/1/5
f 322/2/6 323/2/6 326/2/6
f 326/2/6 323/2/6 327/2/6
f 324/2/6 325/2/6 328/2/6
f 328/2/6 325/2/6 329/2/6
f 332/2/6 333/2/6 335/2/6
f 330/2/6 331/2/6 336/2/6
f 334/2/6 335/2/6 339/2/6
f 335/2/6 333/2/6 340/2/6
f 339/2/6 335/2/6 340/2/6
f 336/2/6 337/2/6 341/2/6
f 330/2/6 336/2/6 341/2/6
f 341/2/6 337/2/6 342/2/6
f 342/2/6 337/2/6 343/2/6
f 338/2/6 339/2/6 345/2/6
f 345/2/6 339/2/6 346/2/6
f 341/1/6 342/1/6 347/1/6
f 347/1/6 342/1/6 348/1/6
f 345/1/6 346/1/6 349/1/6
f 344/1/6 345/1/6 349/1/6
f 349/1/6 346/1/6 350/1/6
f 351/2/6 352/2/6 355/2/6
f 353/2/6 354/2/6 356/2/6
f 351/2/6 355/2/6 357/2/6
f 355/2/6 356/2/6 357/2/6
f 357/2/6 356/2/6 358/2/6
f 358/2/6 356/2/6 359/2/6
f 359/2/6 356/2/6 360/2/6
f 360/2/6 356/2/6 361/2/6
f 361/2/6 356/2/6 362/2/6
f 356/2/6 354/2/6 363/2/6
f 362/2/6 356/2/6 363/2/6
f 363/2/6 354/2/6 364/2/6
f 358/2/6 359/2/6 365/2/6
f 359/3/6 360/3/6 365/3/6
f 360/2/6 361/2/6 366/2/6
f 365/3/6 360/3/6 366/3/6
f 361/3/6 362/3/6 367/3/6
f 366/2/6 361/2/6 367/2/6
f 362/2/6 363/2/6 368/2/6
f 367/3/6 362/3/6 368/3/6
f 358/2/6 365/2/6 369/2/6
f 366/2/6 367/2/6 370/2/6
f 370/2/6 367/2/6 371/2/6
f 368/2/6 363/2/6 372/2/6
f 358/2/6 369/2/6 373/2/6
f 369/3/6 370/3/6 373/3/6
f 370/2/6 371/2/6 374/2/6
f 373/3/6 370/3/6 374/3/6
f 371/3/6 372/3/6 375/3/6
f 374/2/6 371/2/6 375/2/6
f 372/2/6 363/2/6 376/2/6
f 375/3/6 372/3/6 376/3/6
f 373/2/6 374/2/6 377/2/6
f 376/2/6 363/2/6 377/2/6
f 375/2/6 376/2/6 377/2/6
f 374/2/6 375/2/6 377/2/6
f 377/2/6 363/2/6 378/2/6
f 358/2/6 373/2/6 379/2/6
f 373/2/6 377/2/6 379/2/6
f 379/2/6 377/2/6 380/2/6
f 380/2/6 381/2/6 382/2/6
f 382/2/6 381/2/6 383/2/6
f 358/2/6 379/2/6 384/2/6
f 384/2/6 379/2/6 385/2/6
f 386/2/6 387/2/6 390/2/6
f 390/2/6 387/2/6 391/2/6
f 388/1/6 389/1/6 392/1/6
f 392/1/6 389/1/6 393/1/6
